<svg xmlns="http://www.w3.org/2000/svg" viewBox="0 0 291.83 123.32"><defs><style>.cls-1{fill:#882123;}.cls-2{fill:#f2ca59;}.cls-3{fill:#536453;}</style></defs><g id="Livello_3" data-name="Livello 3"><path class="cls-1" d="M120,70.45h-.62v-5.6h1c.39,2.78,2,5.4,5,5.4A3.36,3.36,0,0,0,129,67.12c0-2-1.8-2.15-3.84-2.43-4-.54-5.56-2.19-5.56-5.2a4.56,4.56,0,0,1,4.93-4.78A6.46,6.46,0,0,1,128.36,56l.63-1h.66v4.62h-1a4.41,4.41,0,0,0-4.11-4.08,2.9,2.9,0,0,0-3.17,2.71c0,1.17.2,1.6,3.72,2.19s5.6,1.21,5.6,5.24c0,3.76-2.08,5.41-5.6,5.41a6.4,6.4,0,0,1-3.91-1.65Z"/><path class="cls-1" d="M133.1,70.45v-1H136V55.92H133.1V55c2.31.07,4.7-.08,7.08-.16V69.47h2.9v1Zm4.66-20.51a2.32,2.32,0,0,1-2.12-2.35,2.28,2.28,0,0,1,2.12-2.12,2.31,2.31,0,0,1,2.31,2.12A2.28,2.28,0,0,1,137.76,49.94Z"/><path class="cls-1" d="M149.62,65.28c0,3.72.86,5,3.44,5,2.82,0,4.7-2,5.41-4.7h.9A6.35,6.35,0,0,1,152.83,71c-4.78,0-8-3.8-7.79-8.5a9.11,9.11,0,0,1,2.62-5.83,7.89,7.89,0,0,1,5.52-2c2.35,0,5.83,1.06,5.83,4A2.22,2.22,0,0,1,157.06,61c-1.22,0-2.43-.5-2.43-2,0-1.18,1.21-1.41,1.21-2.12,0-1.09-2.11-1.37-2.74-1.37-3.79,0-3.48,3.88-3.48,6.66Z"/><path class="cls-1" d="M161.36,70.45v-1h2.86V55.92h-2.86V55c2.31.07,4.7-.08,7.09-.16V69.47h2.9v1ZM166,49.94a2.32,2.32,0,0,1-2.11-2.35A2.28,2.28,0,0,1,166,45.47a2.31,2.31,0,0,1,2.31,2.12A2.28,2.28,0,0,1,166,49.94Z"/><path class="cls-1" d="M172.21,70.45v-1h2.93V45.28h-2.81v-1a32.46,32.46,0,0,0,7-.59V69.47h2.86v1Z"/><path class="cls-1" d="M183.13,70.45v-1H186V55.92h-2.86V55c2.31.07,4.7-.08,7.09-.16V69.47h2.89v1Zm4.66-20.51a2.32,2.32,0,0,1-2.11-2.35,2.27,2.27,0,0,1,2.11-2.12,2.31,2.31,0,0,1,2.31,2.12A2.28,2.28,0,0,1,187.79,49.94Z"/><path class="cls-1" d="M201.26,58h.08a5.59,5.59,0,0,1,4.81-3.25c4.27,0,7.32,4,7.32,8.1,0,4-3.09,8.23-7.32,8.23a4.91,4.91,0,0,1-4.81-2.78h-.08V78.63H204v1h-9.79v-1H197V55.92h-2.86V55c2.31.07,4.7-.08,7.09-.16Zm7.55.94c0-2.11-.58-3.41-3-3.41s-4.58,3-4.58,4.51v5.09c0,2.54,1.84,5.16,4.5,5.16,2,0,3.05-1,3.05-3Z"/><path class="cls-1" d="M229.33,67.32h-.12A6.46,6.46,0,0,1,223.46,71c-3.76,0-4.74-2-4.74-3.8V55.92h-2.54V55c1.95.07,4.34-.08,6.69-.16V67c0,1.61-.12,2.82,1.88,2.82,1.45,0,4.58-1.6,4.58-6.3V55.92h-3V55c2.39.07,4.78-.08,7.13-.16V69.47h2.74v1a36.84,36.84,0,0,0-6.89.31Z"/><path class="cls-1" d="M237.51,70.45v-1h2.94V45.28h-2.82v-1a32.5,32.5,0,0,0,7.05-.59V69.47h2.85v1Z"/><path class="cls-1" d="M250.59,70.45H250v-5.6H251c.39,2.78,2,5.4,5,5.4a3.36,3.36,0,0,0,3.56-3.13c0-2-1.8-2.15-3.83-2.43-4-.54-5.56-2.19-5.56-5.2a4.56,4.56,0,0,1,4.93-4.78A6.46,6.46,0,0,1,258.93,56l.62-1h.67v4.62h-1a4.42,4.42,0,0,0-4.11-4.08c-1.53,0-3.17.9-3.17,2.71,0,1.17.19,1.6,3.72,2.19s5.6,1.21,5.6,5.24c0,3.76-2.08,5.41-5.6,5.41a6.43,6.43,0,0,1-3.92-1.65Z"/><path class="cls-1" d="M269.11,61.8v3.13c0,2.74.15,5.32,3.48,5.32a6.1,6.1,0,0,0,5.75-4.7h1c-1,3.8-3.72,5.49-7.51,5.49-4.27,0-7.36-4.12-7.36-8.11,0-4.3,3.52-8.22,7.79-8.22,3.64,0,7,2.51,7,6.38,0,.82-.36.71-1,.71Zm5.71-1c0-2.62.67-5.33-2.82-5.33-3.25,0-2.89,2.86-2.89,5.33Z"/><polygon class="cls-2" points="50.46 30.11 59.31 57.15 77.5 21.25 50.46 30.11"/><polygon class="cls-1" points="45.7 37.31 68.17 48.7 57.09 14.84 45.7 37.31"/><polygon class="cls-1" points="68.19 93.21 59.34 66.17 41.15 102.06 68.19 93.21"/><polygon class="cls-2" points="72.96 86.01 50.48 74.62 61.57 108.48 72.96 86.01"/><polygon class="cls-3" points="27.78 70.61 54.82 61.76 18.92 43.56 27.78 70.61"/><polygon class="cls-1" points="34.98 75.37 46.37 52.9 12.51 63.98 34.98 75.37"/><polygon class="cls-1" points="90.88 52.71 63.84 61.56 99.73 79.75 90.88 52.71"/><polygon class="cls-3" points="83.68 47.95 72.29 70.42 106.15 59.34 83.68 47.95"/></g></svg>