<svg id="Livello_1" data-name="Livello 1" xmlns="http://www.w3.org/2000/svg" viewBox="0 0 335.49 98.04"><defs><style>.cls-1{fill:#f2ca59;}.cls-2{fill:#882123;}.cls-3{fill:#536453;}</style></defs><polygon class="cls-1" points="42.4 40.82 34.27 12.42 55.24 5.99 42.4 40.82"/><path class="cls-2" d="M52.76,32.47,30.46,14.69,45,.91ZM32.14,14.62l18.78,15L44.39,3Z"/><polygon class="cls-1" points="42.45 50.75 50.58 79.16 29.6 85.58 42.45 50.75"/><path class="cls-2" d="M39.83,90.67,32.08,59.11,54.39,76.88ZM33.93,62l6.52,26.56L52.7,77Z"/><polygon class="cls-2" points="47.77 46.18 76.17 38.06 82.6 59.03 47.77 46.18"/><path class="cls-3" d="M87.69,48.8,56.13,56.55,73.9,34.25ZM59,54.7l26.57-6.52L74,35.93Z"/><polygon class="cls-2" points="38.8 46.18 10.4 54.31 3.97 33.33 38.8 46.18"/><path class="cls-3" d="M12.67,58.11-1.12,43.56l31.57-7.75ZM1,44.18,12.6,56.43l15-18.77Z"/><path class="cls-2" d="M103.74,58.23h-.62V51h1.06c.77,3.47,2.86,6.69,6.73,6.69a5.26,5.26,0,0,0,5.45-5.12c0-3.4-3-4.06-5.78-5-.73-.26-1.46-.52-2.19-.74-3.4-1-5.09-3.58-5.09-7.06A6.51,6.51,0,0,1,110,33a7.89,7.89,0,0,1,5.34,1.83l1.39-1.46h.66V40.3h-1.17c-.4-3.48-2.67-6.37-6.33-6.37a4.37,4.37,0,0,0-4.53,4.17c0,2.82,1.93,3.11,4.2,3.74.92.25,1.65.51,2.27.69a17.76,17.76,0,0,1,2.41.84c3.08,1.47,4.18,3.88,4.18,7.17,0,4.61-3,8-7.72,8a8.37,8.37,0,0,1-5.2-1.86Z"/><path class="cls-2" d="M130.38,57.09H134V58H122.07v-.92h3.62V34.48h-3.62v-.91H134v.91h-3.62Z"/><path class="cls-2" d="M156.94,50.73v7.5h-.81l-1.5-1.76a9.79,9.79,0,0,1-6.25,2.08c-6.44,0-11.31-6.54-11.31-12.62a13.72,13.72,0,0,1,6.62-11.7,10.27,10.27,0,0,1,5-1.21,8.88,8.88,0,0,1,5.67,1.9l1.46-1.53h.81v7.06h-1.06c-.55-4-3.33-6.52-6.92-6.52-2.34,0-3.54.52-4.83,2.49-1.71,2.64-1.35,6.88-1.35,9.84a27.22,27.22,0,0,0,.62,7.32,5.39,5.39,0,0,0,5.2,4.06c4.5.22,6.58-3,7.64-6.91Z"/><path class="cls-2" d="M169,57.09h3.62V58H160.71v-.92h3.62V34.48h-3.62v-.91h11.92v.91H169Z"/><path class="cls-2" d="M174.65,58v-.92h3.62V34.48h-3.62v-.91h12.11v.91H183V57.09h4.79c4.65,0,6.3-3.11,6.44-7.32h1.14L195,58Z"/><path class="cls-2" d="M205.6,57.09h3.62V58H197.3v-.92h3.62V34.48H197.3v-.91h11.92v.91H205.6Z"/><path class="cls-2" d="M211.93,33.57h11.82c4.64,0,10.2,1,10.2,6.73,0,5.12-5.34,6.62-9.55,6.62h-4.17V57.09h3.88V58H211.93v-.92h3.62V34.48h-3.62ZM224.51,46c3.55,0,4.28-2.75,4.28-5.75,0-2.63-.18-5.78-4.28-5.78h-4.28V46Z"/><path class="cls-2" d="M260.66,33.57v.91H257V49.85c0,3.66-.69,5.45-2.19,6.8s-3.81,1.9-7.1,1.9a11.14,11.14,0,0,1-6.47-1.93C239.66,55.45,239,53.07,239,49V34.48h-3.62v-.91h11.92v.91h-3.62V47.87c0,5.09-.55,9.51,6.07,9.51,4.28,0,6.11-2.7,6.11-6.73V34.48h-3.55v-.91Z"/><path class="cls-2" d="M262.05,58v-.92h3.63V34.48h-3.63v-.91h12.11v.91h-3.8V57.09h4.79c4.65,0,6.29-3.11,6.44-7.32h1.13L282.36,58Z"/><path class="cls-2" d="M286.71,58.23h-.62V51h1.06c.77,3.47,2.86,6.69,6.73,6.69a5.26,5.26,0,0,0,5.45-5.12c0-3.4-3-4.06-5.78-5-.73-.26-1.46-.52-2.19-.74-3.4-1-5.09-3.58-5.09-7.06A6.51,6.51,0,0,1,292.93,33a7.89,7.89,0,0,1,5.34,1.83l1.39-1.46h.66V40.3h-1.17c-.4-3.48-2.67-6.37-6.33-6.37a4.37,4.37,0,0,0-4.53,4.17c0,2.82,1.93,3.11,4.2,3.74.92.25,1.65.51,2.27.69a18.37,18.37,0,0,1,2.42.84c3.07,1.47,4.17,3.88,4.17,7.17,0,4.61-3,8-7.72,8a8.37,8.37,0,0,1-5.2-1.86Z"/><path class="cls-2" d="M313.49,34.48V45c3.52,0,5.38-.55,5.56-4.46h1V50.73h-1c-.32-4.06-1.61-4.94-5.56-4.83V57.09h5.2c4.75,0,5.78-2.82,6.55-7h1.06L326,58H305.15v-.92h3.66V34.48h-3.66v-.91h20.23l.22,6.58h-1c-.77-3.51-2.16-4.86-4-5.37a11.85,11.85,0,0,0-3.18-.3Z"/></svg>